<svg width="44" height="44" viewBox="0 0 44 44" fill="none" xmlns="http://www.w3.org/2000/svg">
<path d="M23.8848 3.66803C25.9481 3.67144 26.9936 3.68237 27.8971 3.70926L28.2529 3.72088C28.664 3.7355 29.0695 3.75383 29.5585 3.77675C31.5093 3.86689 32.8401 4.1755 34.0089 4.62925C35.2172 5.09522 36.2378 5.72466 37.2568 6.7437C38.2743 7.76272 38.9039 8.78633 39.3714 9.99175C39.8235 11.159 40.1322 12.4912 40.2239 14.4422C40.2457 14.9311 40.2633 15.3366 40.2778 15.7477L40.2893 16.1035C40.3161 17.0069 40.3284 18.0526 40.3322 20.1159L40.3337 21.4828C40.3339 21.6499 40.3339 21.8222 40.3339 22L40.3337 22.5172L40.3326 23.8843C40.3291 25.9476 40.3183 26.9933 40.2913 27.8966L40.2796 28.2524C40.2651 28.6636 40.2468 29.0692 40.2239 29.5579C40.1337 31.509 39.8235 32.8396 39.3714 34.0084C38.9053 35.2169 38.2743 36.2375 37.2568 37.2565C36.2378 38.274 35.2126 38.9034 34.0089 39.3709C32.8401 39.8231 31.5093 40.1317 29.5585 40.2234C29.0695 40.2452 28.664 40.263 28.2529 40.2773L27.8971 40.2888C26.9936 40.3158 25.9481 40.3279 23.8848 40.3319L22.5177 40.3334C22.3507 40.3334 22.1784 40.3334 22.0005 40.3334H21.4834L20.1162 40.3321C18.053 40.3288 17.0073 40.3178 16.1039 40.2908L15.7481 40.2793C15.337 40.2646 14.9315 40.2463 14.4426 40.2234C12.4916 40.1333 11.1624 39.8231 9.99217 39.3709C8.78522 38.905 7.76313 38.274 6.74411 37.2565C5.72509 36.2375 5.09717 35.2123 4.62967 34.0084C4.17592 32.8396 3.86884 31.509 3.77717 29.5579C3.75539 29.0692 3.73763 28.6636 3.72324 28.2524L3.71171 27.8966C3.68488 26.9933 3.67266 25.9476 3.6687 23.8843L3.66846 20.1159C3.67187 18.0526 3.68278 17.0069 3.70967 16.1035L3.72131 15.7477C3.73592 15.3366 3.75426 14.9311 3.77717 14.4422C3.8673 12.4897 4.17592 11.1605 4.62967 9.99175C5.09563 8.78481 5.72509 7.76272 6.74411 6.7437C7.76313 5.72466 8.78676 5.09675 9.99217 4.62925C11.1609 4.1755 12.4901 3.86841 14.4426 3.77675C14.9315 3.75498 15.337 3.73722 15.7481 3.72283L16.1039 3.7113C17.0073 3.68446 18.053 3.67223 20.1162 3.66827L23.8848 3.66803ZM22.0005 12.8334C16.9352 12.8334 12.8338 16.9392 12.8338 22C12.8338 27.0653 16.9396 31.1667 22.0005 31.1667C27.0659 31.1667 31.1672 27.0609 31.1672 22C31.1672 16.9348 27.0613 12.8334 22.0005 12.8334ZM22.0005 16.5001C25.0382 16.5001 27.5005 18.9616 27.5005 22C27.5005 25.0377 25.0389 27.5 22.0005 27.5C18.9629 27.5 16.5005 25.0386 16.5005 22C16.5005 18.9624 18.962 16.5001 22.0005 16.5001ZM31.6255 10.0834C30.3618 10.0834 29.3339 11.1099 29.3339 12.3735C29.3339 13.6371 30.3604 14.6652 31.6255 14.6652C32.8891 14.6652 33.9172 13.6387 33.9172 12.3735C33.9172 11.1099 32.8874 10.0818 31.6255 10.0834Z" fill="#F00073"/>
</svg>
